<svg width="32" height="32" viewBox="0 0 32 32" fill="none" xmlns="http://www.w3.org/2000/svg">
<g id="Frame 61">
<path id="Vector" d="M15.605 23.1008L15.5 23.2044L15.3845 23.1008C10.397 18.6381 7.1 15.6872 7.1 12.6948C7.1 10.624 8.675 9.07084 10.775 9.07084C12.392 9.07084 13.967 10.1063 14.5235 11.5144H16.4765C17.033 10.1063 18.608 9.07084 20.225 9.07084C22.325 9.07084 23.9 10.624 23.9 12.6948C23.9 15.6872 20.603 18.6381 15.605 23.1008ZM20.225 7C18.398 7 16.6445 7.83869 15.5 9.15368C14.3555 7.83869 12.602 7 10.775 7C7.541 7 5 9.49537 5 12.6948C5 16.5984 8.57 19.7978 13.9775 24.6332L15.5 26L17.0225 24.6332C22.43 19.7978 26 16.5984 26 12.6948C26 9.49537 23.459 7 20.225 7Z" fill="#6BC413"/>
</g>
</svg>
