<svg width="32" height="32" viewBox="0 0 32 32" fill="none" xmlns="http://www.w3.org/2000/svg">
<path d="M25.3343 2.66602H12.001C10.5304 2.66602 9.33435 3.86202 9.33435 5.33268V12.7807L3.05835 19.0567C2.87194 19.2432 2.745 19.4807 2.69357 19.7393C2.64215 19.9979 2.66855 20.266 2.76945 20.5096C2.87034 20.7532 3.04119 20.9614 3.26041 21.1079C3.47962 21.2544 3.73735 21.3326 4.00102 21.3327V27.9993C4.00102 28.353 4.14149 28.6921 4.39154 28.9422C4.64159 29.1922 4.98073 29.3327 5.33435 29.3327H26.6677C27.0213 29.3327 27.3604 29.1922 27.6105 28.9422C27.8605 28.6921 28.001 28.353 28.001 27.9993V5.33268C28.001 3.86202 26.805 2.66602 25.3343 2.66602ZM14.6677 26.666H6.66768V19.218L10.6677 15.218L14.6677 19.218V26.666ZM25.3343 26.666H17.3344V21.3327C17.5983 21.3333 17.8565 21.2554 18.0761 21.109C18.2957 20.9626 18.4669 20.7542 18.5679 20.5104C18.6689 20.2665 18.6952 19.9981 18.6434 19.7393C18.5916 19.4805 18.4641 19.2429 18.277 19.0567L12.001 12.7807V5.33268H25.3343V26.666Z" fill="currenrColor"/>
<path d="M14.6654 8H17.332V10.6667H14.6654V8ZM19.9987 8H22.6654V10.6667H19.9987V8ZM19.9987 13.3747H22.6654V16H19.9987V13.3747ZM19.9987 18.6667H22.6654V21.3333H19.9987V18.6667ZM9.33203 20H11.9987V22.6667H9.33203V20Z" fill="currenrColor"/>
</svg>
