<svg width="16" height="16" viewBox="0 0 16 16" fill="none" xmlns="http://www.w3.org/2000/svg">
<g id="ic:round-access-time">
<path id="Vector" d="M7.995 3C5.235 3 3 5.24 3 8C3 10.76 5.235 13 7.995 13C10.76 13 13 10.76 13 8C13 5.24 10.76 3 7.995 3ZM8 12C5.79 12 4 10.21 4 8C4 5.79 5.79 4 8 4C10.21 4 12 5.79 12 8C12 10.21 10.21 12 8 12ZM7.89 5.5H7.86C7.66 5.5 7.5 5.66 7.5 5.86V8.22C7.5 8.395 7.59 8.56 7.745 8.65L9.82 9.895C9.99 9.995 10.21 9.945 10.31 9.775C10.3351 9.73451 10.3518 9.68939 10.3591 9.64231C10.3664 9.59524 10.3642 9.54717 10.3525 9.50098C10.3408 9.4548 10.32 9.41143 10.2912 9.37346C10.2624 9.3355 10.2263 9.30371 10.185 9.28L8.25 8.13V5.86C8.25 5.66 8.09 5.5 7.89 5.5Z" fill="#5C6363"/>
</g>
</svg>
