<svg width="32" height="32" viewBox="0 0 32 32" fill="none" xmlns="http://www.w3.org/2000/svg">
<path d="M18.668 7.99935V5.33268H13.3346V7.99935H18.668ZM5.33464 11.9993V23.9993C5.33464 24.7327 5.93464 25.3327 6.66797 25.3327H25.3346C26.068 25.3327 26.668 24.7327 26.668 23.9993V11.9993C26.668 11.266 26.068 10.666 25.3346 10.666H6.66797C5.93464 10.666 5.33464 11.266 5.33464 11.9993ZM26.668 7.99935C28.148 7.99935 29.3346 9.18602 29.3346 10.666V25.3327C29.3346 26.8127 28.148 27.9993 26.668 27.9993H5.33464C3.85464 27.9993 2.66797 26.8127 2.66797 25.3327L2.6813 10.666C2.6813 9.18602 3.85464 7.99935 5.33464 7.99935H10.668V5.33268C10.668 3.85268 11.8546 2.66602 13.3346 2.66602H18.668C20.148 2.66602 21.3346 3.85268 21.3346 5.33268V7.99935H26.668Z" fill="currenrColor"/>
</svg>
