<svg width="32" height="32" viewBox="0 0 32 32" fill="none" xmlns="http://www.w3.org/2000/svg">
<path d="M22.668 20.2927C22.668 21.5993 21.6013 22.666 20.2946 22.666C18.988 22.666 17.9346 21.5993 17.9346 20.2927C17.9346 18.986 18.988 17.9327 20.2946 17.9327C21.6013 17.9327 22.668 18.986 22.668 20.2927ZM11.7746 14.1327C13.0813 14.1327 14.1346 13.0793 14.1346 11.7727C14.1346 10.4527 13.0813 9.39935 11.7746 9.39935C10.4546 9.39935 9.4013 10.4527 9.4013 11.7727C9.4013 13.0793 10.4546 14.1327 11.7746 14.1327ZM9.33463 20.706L11.3346 22.706L22.708 11.3327L20.708 9.33268L9.33463 20.706ZM29.3346 15.9993C29.3346 23.3327 23.3346 29.3327 16.0013 29.3327C8.66797 29.3327 2.66797 23.3327 2.66797 15.9993C2.66797 8.66602 8.66797 2.66602 16.0013 2.66602C23.3346 2.66602 29.3346 8.66602 29.3346 15.9993ZM26.668 15.9993C26.668 10.1193 21.8813 5.33268 16.0013 5.33268C10.1213 5.33268 5.33464 10.1193 5.33464 15.9993C5.33464 21.8793 10.1213 26.666 16.0013 26.666C21.8813 26.666 26.668 21.8793 26.668 15.9993Z" fill="currenrColor"/>
</svg>
