<svg width="32" height="32" viewBox="0 0 32 32" fill="none" xmlns="http://www.w3.org/2000/svg">
<path d="M15.9987 29.334C17.4654 29.334 18.6654 28.134 18.6654 26.6673H13.332C13.332 28.134 14.532 29.334 15.9987 29.334ZM23.9987 21.334V14.6673C23.9987 10.574 21.8254 7.14732 17.9987 6.24065V5.33398C17.9987 4.22732 17.1054 3.33398 15.9987 3.33398C14.892 3.33398 13.9987 4.22732 13.9987 5.33398V6.24065C10.1854 7.14732 7.9987 10.5607 7.9987 14.6673V21.334L5.33203 24.0007V25.334H26.6654V24.0007L23.9987 21.334ZM21.332 22.6673H10.6654V14.6673C10.6654 11.3607 12.6787 8.66732 15.9987 8.66732C19.3187 8.66732 21.332 11.3607 21.332 14.6673V22.6673Z" fill="currenrColor"/>
</svg>
