<svg width="32" height="32" viewBox="0 0 32 32" fill="none" xmlns="http://www.w3.org/2000/svg">
<g clip-path="url(#clip0_401_16862)">
<path d="M9.95486 11.2814V8.05062C9.95486 6.62253 10.5217 5.25294 11.5306 4.24313C12.5395 3.23332 13.9078 2.66602 15.3346 2.66602C16.7614 2.66602 18.1298 3.23332 19.1387 4.24313C20.1476 5.25294 20.7144 6.62253 20.7144 8.05062V11.2814M27.9879 28.2752C28.0218 28.5774 27.9913 28.8833 27.8986 29.1728C27.8059 29.4624 27.653 29.729 27.4499 29.9552C27.2463 30.181 26.9972 30.3611 26.719 30.4836C26.4408 30.6061 26.1399 30.6683 25.836 30.666H4.83331C4.5294 30.6683 4.22845 30.6061 3.95027 30.4836C3.67209 30.3611 3.42299 30.181 3.21938 29.9552C3.01631 29.729 2.86338 29.4624 2.77065 29.1728C2.67793 28.8833 2.64751 28.5774 2.6814 28.2752L4.57508 11.2814H26.0942L27.9879 28.2752Z" stroke="currenrColor" stroke-width="3" stroke-linecap="round" stroke-linejoin="round"/>
</g>
<defs>
<clipPath id="clip0_401_16862">
<rect width="32" height="32" fill="white"/>
</clipPath>
</defs>
</svg>
