<svg width="16" height="16" viewBox="0 0 16 16" fill="none" xmlns="http://www.w3.org/2000/svg">
<g id="mdi:map-marker-outline">
<path id="Vector" d="M7.73333 5.06602C8.08696 5.06602 8.42609 5.20649 8.67614 5.45654C8.92619 5.70659 9.06667 6.04573 9.06667 6.39935C9.06667 6.57445 9.03218 6.74783 8.96517 6.90959C8.89817 7.07136 8.79995 7.21835 8.67614 7.34216C8.55233 7.46597 8.40535 7.56418 8.24358 7.63119C8.08181 7.69819 7.90843 7.73268 7.73333 7.73268C7.37971 7.73268 7.04057 7.59221 6.79052 7.34216C6.54048 7.09211 6.4 6.75297 6.4 6.39935C6.4 6.04573 6.54048 5.70659 6.79052 5.45654C7.04057 5.20649 7.37971 5.06602 7.73333 5.06602ZM7.73333 2.66602C8.72347 2.66602 9.67306 3.05935 10.3732 3.75948C11.0733 4.45962 11.4667 5.40921 11.4667 6.39935C11.4667 9.19935 7.73333 13.3327 7.73333 13.3327C7.73333 13.3327 4 9.19935 4 6.39935C4 5.40921 4.39333 4.45962 5.09347 3.75948C5.7936 3.05935 6.74319 2.66602 7.73333 2.66602ZM7.73333 3.73268C7.02609 3.73268 6.34781 4.01363 5.84772 4.51373C5.34762 5.01383 5.06667 5.69211 5.06667 6.39935C5.06667 6.93268 5.06667 7.99935 7.73333 11.578C10.4 7.99935 10.4 6.93268 10.4 6.39935C10.4 5.69211 10.119 5.01383 9.61895 4.51373C9.11885 4.01363 8.44058 3.73268 7.73333 3.73268Z" fill="#5C6363"/>
</g>
</svg>
