<svg width="32" height="32" viewBox="0 0 32 32" fill="none" xmlns="http://www.w3.org/2000/svg">
<g id="twemoji:flag-canada">
<path id="Vector" d="M3.55556 4.44531C2.61256 4.44531 1.70819 4.81991 1.0414 5.48671C0.374602 6.15351 0 7.05788 0 8.00087L0 24.0009C0 24.9439 0.374602 25.8482 1.0414 26.515C1.70819 27.1818 2.61256 27.5564 3.55556 27.5564H8.88889V4.44531H3.55556ZM28.4444 4.44531H23.1111V27.5564H28.4444C29.3874 27.5564 30.2918 27.1818 30.9586 26.515C31.6254 25.8482 32 24.9439 32 24.0009V8.00087C32 7.05788 31.6254 6.15351 30.9586 5.48671C30.2918 4.81991 29.3874 4.44531 28.4444 4.44531Z" fill="#D52B1E"/>
<path id="Vector_2" d="M8.88867 4.44531H23.1109V27.5564H8.88867V4.44531Z" fill="#EEEEEE"/>
<path id="Vector_3" d="M16.5481 19.6556C17.613 19.7792 18.5676 19.8903 19.6316 20.0121L19.3605 19.1214C19.3406 19.0448 19.3433 18.964 19.3684 18.8889C19.3935 18.8138 19.4399 18.7475 19.5019 18.6983L22.5943 16.1792L21.9543 15.8778C21.6725 15.7774 21.7499 15.6183 21.8521 15.2361L22.3241 13.5152L20.5276 13.8947C20.3525 13.9214 20.2361 13.8103 20.2094 13.7036L19.9774 12.8938L18.557 14.4885C18.3552 14.7445 17.9463 14.7445 18.0734 14.1543L18.6805 10.9241L17.8654 11.3463C17.637 11.4743 17.4085 11.4956 17.2814 11.2672L16.157 9.16406L15.0325 11.2672C14.9045 11.4956 14.6761 11.4743 14.4476 11.3463L13.6334 10.9241L14.2405 14.1543C14.3685 14.7445 13.9588 14.7445 13.757 14.4885L12.3365 12.8947L12.1054 13.7045C12.0787 13.8112 11.9614 13.9223 11.7863 13.8956L9.98986 13.5161L10.4619 15.237C10.5623 15.6192 10.6405 15.7783 10.3588 15.8787L9.71875 16.1801L12.8112 18.6992C12.9339 18.7943 12.9961 18.9658 12.9516 19.1223L12.6805 20.013L15.765 19.6565C15.8592 19.6565 15.9214 19.709 15.9205 19.8174L15.7303 23.1098H16.5801L16.3907 19.8174C16.3925 19.7081 16.4539 19.6556 16.5481 19.6556Z" fill="#D52B1E"/>
</g>
</svg>
