<svg width="32" height="32" viewBox="0 0 32 32" fill="none" xmlns="http://www.w3.org/2000/svg">
<g id="twemoji:flag-england">
<path id="Vector" d="M28.4444 4.44531H3.55556C2.61256 4.44531 1.70819 4.81991 1.0414 5.48671C0.374602 6.15351 0 7.05788 0 8.00087L0 24.0009C0 24.9439 0.374602 25.8482 1.0414 26.515C1.70819 27.1818 2.61256 27.5564 3.55556 27.5564H28.4444C29.3874 27.5564 30.2918 27.1818 30.9586 26.515C31.6254 25.8482 32 24.9439 32 24.0009V8.00087C32 7.05788 31.6254 6.15351 30.9586 5.48671C30.2918 4.81991 29.3874 4.44531 28.4444 4.44531Z" fill="#EEEEEE"/>
<path id="Vector_2" d="M18.6667 4.44531H13.3333V13.3342H0V18.6675H13.3333V27.5564H18.6667V18.6675H32V13.3342H18.6667V4.44531Z" fill="#CE1124"/>
</g>
</svg>
