<svg width="32" height="32" viewBox="0 0 32 32" fill="none" xmlns="http://www.w3.org/2000/svg">
<g id="twemoji:flag-spain">
<path id="Vector" d="M32 24.0009C32 24.9439 31.6254 25.8482 30.9586 26.515C30.2918 27.1818 29.3874 27.5564 28.4444 27.5564H3.55556C2.61256 27.5564 1.70819 27.1818 1.0414 26.515C0.374602 25.8482 0 24.9439 0 24.0009V8.00087C0 7.05788 0.374602 6.15351 1.0414 5.48671C1.70819 4.81991 2.61256 4.44531 3.55556 4.44531H28.4444C29.3874 4.44531 30.2918 4.81991 30.9586 5.48671C31.6254 6.15351 32 7.05788 32 8.00087V24.0009Z" fill="#C60A1D"/>
<path id="Vector_2" d="M0 10.668H32V21.3346H0V10.668Z" fill="#FFC400"/>
<path id="Vector_3" d="M8 15.1094V17.776C8 18.4833 8.28095 19.1616 8.78105 19.6617C9.28115 20.1618 9.95942 20.4427 10.6667 20.4427C11.3739 20.4427 12.0522 20.1618 12.5523 19.6617C13.0524 19.1616 13.3333 18.4833 13.3333 17.776V15.1094H8Z" fill="#EA596E"/>
<path id="Vector_4" d="M10.668 14.2227H13.3346V16.8893H10.668V14.2227Z" fill="#F4A2B2"/>
<path id="Vector_5" d="M8 14.2227H10.6667V16.8893H8V14.2227Z" fill="#DD2E44"/>
<path id="Vector_6" d="M10.6667 14.2214C12.1394 14.2214 13.3333 13.6244 13.3333 12.888C13.3333 12.1516 12.1394 11.5547 10.6667 11.5547C9.19391 11.5547 8 12.1516 8 12.888C8 13.6244 9.19391 14.2214 10.6667 14.2214Z" fill="#EA596E"/>
<path id="Vector_7" d="M10.6667 12.888C12.1394 12.888 13.3333 12.5895 13.3333 12.2214C13.3333 11.8532 12.1394 11.5547 10.6667 11.5547C9.19391 11.5547 8 11.8532 8 12.2214C8 12.5895 9.19391 12.888 10.6667 12.888Z" fill="#FFAC33"/>
<path id="Vector_8" d="M6.22266 14.2227H7.11155V20.4449H6.22266V14.2227ZM14.2227 14.2227H15.1115V20.4449H14.2227V14.2227Z" fill="#99AAB5"/>
<path id="Vector_9" d="M5.33203 19.5543H7.9987V20.4431H5.33203V19.5543ZM13.332 19.5543H15.9987V20.4431H13.332V19.5543ZM6.22092 13.332H7.10981V14.2209H6.22092V13.332ZM14.2209 13.332H15.1098V14.2209H14.2209V13.332Z" fill="#66757F"/>
</g>
</svg>
