<svg width="32" height="32" viewBox="0 0 32 32" fill="none" xmlns="http://www.w3.org/2000/svg">
<g id="twemoji:flag-greece">
<path id="Vector" d="M3.55594 27.5538H28.4448C29.0466 27.5544 29.6386 27.4014 30.1648 27.1094H1.83594C2.36214 27.4014 2.95413 27.5544 3.55594 27.5538Z" fill="#0D5EB0"/>
<path id="Vector_2" d="M7.55556 17.3325H0V19.5547H32V17.3325H12.4444H7.55556ZM0 23.9991C0 24.1502 0.0124444 24.2978 0.0311111 24.4436H31.9698C31.9876 24.2978 32 24.1502 32 23.9991V22.2214H0V23.9991ZM12.4444 12.4436H32V14.6658H12.4444V12.4436ZM12.4444 7.55469V9.77691H32V7.99913C32 7.84802 31.9876 7.70047 31.9689 7.55469H12.4444Z" fill="#EEEEEE"/>
<path id="Vector_3" d="M12.4444 9.77865H32V12.4453H12.4444V9.77865ZM0 19.5564H32V22.2231H0V19.5564ZM1.83556 27.112H30.1644C30.6539 26.8408 31.0725 26.458 31.3861 25.9946C31.6998 25.5313 31.8998 25.0005 31.9698 24.4453H0.0311111C0.10073 25.0005 0.300446 25.5313 0.614003 25.9947C0.92756 26.4581 1.3461 26.8409 1.83556 27.112ZM0 12.4453H4.88889V17.3342H0V12.4453ZM12.4444 14.6675V12.4453H7.55556V17.3342H32V14.6675H12.4444ZM30.1644 4.88976C29.6382 4.59773 29.0462 4.44476 28.4444 4.44531H3.55556C2.69005 4.44626 1.85457 4.76272 1.20563 5.33542C0.556683 5.90811 0.138789 6.69775 0.0302222 7.55643C0.0124444 7.7022 0 7.84976 0 8.00087V9.77865H4.88889V4.88976H7.55556V9.77865H12.4444V7.55643H31.9689C31.8993 7.00127 31.6996 6.4704 31.386 6.00701C31.0724 5.54363 30.6539 5.16082 30.1644 4.88976Z" fill="#0D5EB0"/>
<path id="Vector_4" d="M7.55556 9.77865V4.44531H4.88889V9.77865H0V12.4453H4.88889V17.3342H7.55556V12.4453H12.4444V9.77865H7.55556Z" fill="#EEEEEE"/>
</g>
</svg>
