<svg width="32" height="32" viewBox="0 0 32 32" fill="none" xmlns="http://www.w3.org/2000/svg">
<g id="twemoji:flag-turkey">
<path id="Vector" d="M32 24.0009C32 24.9439 31.6254 25.8482 30.9586 26.515C30.2918 27.1818 29.3874 27.5564 28.4444 27.5564H3.55556C2.61256 27.5564 1.70819 27.1818 1.0414 26.515C0.374602 25.8482 0 24.9439 0 24.0009V8.00087C0 7.05788 0.374602 6.15351 1.0414 5.48671C1.70819 4.81991 2.61256 4.44531 3.55556 4.44531H28.4444C29.3874 4.44531 30.2918 4.81991 30.9586 5.48671C31.6254 6.15351 32 7.05788 32 8.00087V24.0009Z" fill="#E30917"/>
<path id="Vector_2" d="M14.222 21.3342C12.8075 21.3342 11.4509 20.7723 10.4507 19.7721C9.45055 18.7719 8.88865 17.4153 8.88865 16.0008C8.88865 14.5864 9.45055 13.2298 10.4507 12.2296C11.4509 11.2294 12.8075 10.6675 14.222 10.6675C15.3864 10.6675 16.462 11.0453 17.3393 11.6791C16.7276 10.9833 15.9746 10.4259 15.1305 10.0441C14.2864 9.66226 13.3706 9.4648 12.4442 9.46484C10.7107 9.46484 9.04829 10.1535 7.82255 11.3792C6.59682 12.6049 5.9082 14.2674 5.9082 16.0008C5.90809 16.8592 6.07706 17.7092 6.40547 18.5023C6.73388 19.2954 7.2153 20.0161 7.82224 20.6231C8.42917 21.2301 9.14974 21.7116 9.94278 22.0401C10.7358 22.3686 11.5858 22.5377 12.4442 22.5377C14.3953 22.5377 16.142 21.6782 17.3393 20.3226C16.4332 20.9807 15.3419 21.3348 14.222 21.3342ZM17.7002 16.2053L19.8691 16.7048L20.0646 18.9208L21.2095 17.0133L23.3784 17.512L21.9171 15.8337L23.0611 13.9253L21.014 14.7964L19.5526 13.1173L19.7482 15.3342L17.7002 16.2053Z" fill="#EEEEEE"/>
</g>
</svg>
